<?xml version="1.0" encoding="UTF-8" standalone="no"?>
<svg
   version="1.1"
   viewBox="0 0 353.33716 190.88869"
   id="svg37"
   sodipodi:docname="mama-heart-logo (2).svg"
   width="353.33716"
   height="190.88869"
   inkscape:version="1.4 (86a8ad7, 2024-10-11)"
   xmlns:inkscape="http://www.inkscape.org/namespaces/inkscape"
   xmlns:sodipodi="http://sodipodi.sourceforge.net/DTD/sodipodi-0.dtd"
   xmlns="http://www.w3.org/2000/svg"
   xmlns:svg="http://www.w3.org/2000/svg">
  <defs
     id="defs37" />
  <sodipodi:namedview
     id="namedview37"
     pagecolor="#505050"
     bordercolor="#eeeeee"
     borderopacity="1"
     inkscape:showpageshadow="0"
     inkscape:pageopacity="0"
     inkscape:pagecheckerboard="0"
     inkscape:deskcolor="#505050"
     inkscape:zoom="1.7083333"
     inkscape:cx="168.29268"
     inkscape:cy="111.5122"
     inkscape:window-width="1500"
     inkscape:window-height="941"
     inkscape:window-x="-7"
     inkscape:window-y="-7"
     inkscape:window-maximized="1"
     inkscape:current-layer="svg37" />
  <clipPath
     id="clipping-path-0">
    <path
       d="M 0,0 H 612 V 408 H 0 Z"
       id="path1" />
  </clipPath>
  <g
     stroke-width="2"
     fill="none"
     stroke-linecap="butt"
     clip-path="url(#clipping-path-0)"
     id="g2"
     transform="translate(-137.45796,-92.195858)">
    <path
       stroke="#ccc889"
       vector-effect="non-scaling-stroke"
       d="m 437.73,195.44 c -2.49,-3.21 -3.9,-7.08 -4.24,-11.61"
       id="path2" />
  </g>
  <g
     fill="#ffe68b"
     id="g17"
     transform="translate(-137.45796,-92.195858)">
    <path
       d="m 439.14,92.21 c 0.05,0.01 0.1,0.03 0.15,0.05 0.09,0.03 0.14,0.06 0.15,0.07 7.29,12.31 1.81,23.61 -7.2,32.65 -0.57,0.56 -1.03,0.8 -1.4,0.71 -0.43,-0.11 -0.76,-0.55 -0.99,-1.31 -3.67,-12.23 -3.16,-24.78 9.09,-32.18 0.01,-0.01 0.06,0 0.16,0.01 0.05,0.01 0.07,0.01 0.04,0 z"
       id="path3" />
    <path
       d="m 423.13,125.91 c -0.34,0.08 -0.77,-0.15 -1.29,-0.69 -8.32,-8.63 -13.29,-19.33 -6.24,-30.78 0,-0.01 0.05,-0.03 0.14,-0.06 0.04,-0.02 0.09,-0.04 0.14,-0.05 -0.03,0.01 -0.01,0.01 0.04,0 0.09,-0.01 0.14,-0.01 0.15,0 11.38,7.15 11.66,18.94 8.02,30.36 -0.23,0.72 -0.55,1.13 -0.96,1.22 z"
       id="path4" />
    <path
       d="m 462.18,99.73 c 1.42,9.07 -1.27,16.05 -8.07,20.94 -3.54,2.55 -8.43,5.4 -12.45,5.22 -0.62,-0.03 -1.09,-0.56 -1.04,-1.18 0.34,-3.88 1.3,-9.95 2.96,-13.28 3.35,-6.76 9.04,-11.01 17.05,-12.76 0.73,-0.16 1.44,0.33 1.55,1.06 z"
       id="path5" />
    <path
       d="m 397.51,102.01 c 0.08,-0.46 0.53,-0.76 0.98,-0.64 3.34,0.86 6.48,2.53 9.42,5 4.64,3.89 6.54,12.68 6.86,18.55 0.03,0.65 -0.58,1.14 -1.21,0.97 -10.96,-3.04 -17.86,-12.31 -16.05,-23.88 z"
       id="path6" />
    <path
       d="m 480.37,116.21 c 0.06,1.08 -0.31,2.46 -1.1,4.15 -2.53,5.39 -5.08,9.66 -9.91,11.98 -4.97,2.39 -12.62,3.17 -17.17,-0.53 -0.86,-0.7 -1.1,-1.91 -0.56,-2.88 6.21,-11.12 15.36,-15.63 28.1,-13.44 0.35,0.06 0.62,0.36 0.64,0.72 z"
       id="path7" />
    <path
       d="m 382.77,116.27 c 0.01,-0.34 0.27,-0.62 0.61,-0.66 9.93,-1.23 18.03,2.14 21.83,11.69 0.47,1.19 0.54,1.98 0.21,2.38 -0.95,1.14 -2.52,3.27 -4.29,3.65 -11.22,2.39 -18.85,-6.76 -18.36,-17.06 z"
       id="path8" />
    <path
       d="m 400.57,143.03 c -0.1,0.44 -0.53,0.82 -1.26,1.14 -11.01,4.7 -22.5,2.91 -28.59,-8.03 -0.03,-0.06 -0.03,-0.18 0.01,-0.35 0.05,-0.18 0.1,-0.28 0.15,-0.32 10.43,-6.93 21.46,-3.26 29.09,5.97 0.51,0.62 0.71,1.15 0.6,1.59 z"
       id="path9" />
    <path
       d="m 472.09,134.54 c 6.22,-0.69 12.77,1.61 18.15,4.77 0.6,0.35 0.74,1.17 0.29,1.71 -4.1,4.84 -10.28,8.91 -16.66,9.61 -6.37,0.71 -13.29,-1.91 -18.35,-5.73 -0.56,-0.43 -0.61,-1.26 -0.09,-1.74 4.56,-4.26 10.44,-7.93 16.66,-8.62 z"
       id="path10" />
    <path
       d="m 403.13,152.56 c 0.05,0.25 -0.04,0.52 -0.28,0.81 -8.51,9.92 -19.91,13.83 -31.74,6.34 -0.05,-0.03 -0.08,-0.11 -0.11,-0.24 -0.01,-0.06 -0.01,-0.11 0.02,-0.15 7.67,-11.72 19.66,-12.89 31.52,-7.38 0.34,0.16 0.53,0.36 0.59,0.62 z"
       id="path11" />
    <path
       d="m 450.92,155.13 c 0.09,-0.28 0.34,-0.49 0.74,-0.62 14.18,-4.63 27.6,-1.69 34.7,12.62 0.03,0.05 0.03,0.11 0,0.18 -0.05,0.14 -0.1,0.22 -0.15,0.25 -14.41,6.88 -26.79,0.91 -35.09,-11.48 -0.23,-0.35 -0.3,-0.67 -0.2,-0.95 z"
       id="path12" />
    <path
       d="m 407.72,160.94 c 0.17,0.22 0.21,0.51 0.11,0.88 -3.54,13.14 -12.5,21.92 -26.96,20.2 -0.06,-0.01 -0.13,-0.06 -0.21,-0.17 -0.04,-0.05 -0.06,-0.11 -0.05,-0.16 1.94,-14.44 12.68,-20.92 26.29,-21.06 0.38,-0.01 0.66,0.1 0.82,0.31 z"
       id="path13" />
    <path
       d="m 472.05,189.73 c -0.11,0.11 -0.19,0.17 -0.25,0.17 -15.92,0.61 -24.91,-9.75 -27.61,-24.38 -0.08,-0.42 -0.02,-0.74 0.19,-0.96 0.19,-0.22 0.5,-0.31 0.92,-0.27 14.82,1.36 25.96,9.36 26.81,25.27 0.01,0.06 -0.02,0.12 -0.06,0.17 z"
       id="path14" />
    <path
       d="m 414.8,169.43 c 0.24,0.15 0.38,0.42 0.42,0.82 1.22,13.94 -4.33,25.59 -18.91,29.03 -0.06,0.01 -0.15,-0.02 -0.27,-0.09 -0.05,-0.04 -0.09,-0.08 -0.1,-0.14 -3.22,-14.63 4.86,-24.68 17.96,-29.63 0.37,-0.14 0.67,-0.14 0.9,0.01 z"
       id="path15" />
    <path
       d="m 437.73,195.44 c -2.49,-3.21 -3.9,-7.08 -4.24,-11.61 -0.16,-3.42 0.09,-6.79 0.74,-10.1 0.11,-0.53 0.24,-0.9 0.4,-1.11 0.37,-0.49 1.04,-0.63 1.58,-0.35 5.7,2.96 10.78,6.93 13.71,12.67 2.49,4.85 1.69,12.37 0.14,17.48 -0.15,0.48 -0.68,0.73 -1.15,0.54 -3.97,-1.65 -7.69,-4.16 -11.18,-7.52 z"
       id="path16" />
    <path
       d="m 422.56,174.68 c 0.19,-0.01 0.23,0.02 0.33,0.1 4.16,3.17 7.45,11.49 7.51,16.62 0.05,5.13 -3.06,13.52 -7.16,16.77 -0.1,0.09 -0.14,0.11 -0.33,0.11 -0.19,0 -0.22,-0.02 -0.33,-0.1 -4.16,-3.17 -7.45,-11.49 -7.51,-16.62 -0.05,-5.13 3.06,-13.52 7.16,-16.78 0.1,-0.08 0.14,-0.1 0.33,-0.1 z"
       id="path17" />
    <ellipse
       cx="0"
       cy="0"
       transform="rotate(-170.7,117.07675,130.53286)"
       rx="3.5699999"
       ry="3.4100001"
       id="ellipse17" />
  </g>
  <g
     fill="#f7a530"
     id="g22"
     transform="translate(-137.45796,-92.195858)">
    <path
       d="m 426.29,174.28 c -9.49,-6.61 -16.44,-14.17 -20.84,-22.68 -3.97,-7.7 -3.59,-20.62 7.14,-23 5.11,-1.14 9.37,1.21 13.5,4.37 0.25,0.19 0.59,0.22 0.88,0.08 1.37,-0.66 3.66,-2.7 5.77,-3.63 3.44,-1.52 9.32,-1.84 12.76,0.03 11.78,6.43 5.74,21.25 -0.97,29.39 -4.79,5.81 -10.57,10.96 -17.34,15.45 -0.27,0.18 -0.63,0.18 -0.9,-0.01 z"
       id="path18" />
    <path
       d="m 204.18,173.87 c -0.03,0.11 0.02,0.23 0.12,0.28 0.11,0.04 0.23,0.01 0.29,-0.09 3.49,-5.67 7.77,-11.14 12.82,-16.39 4.41,-4.58 13.93,-9 15.69,0.77 0.31,1.75 -0.17,4.42 -1.44,8 -0.77,2.16 -3.3,8.95 -7.6,20.37 -2.11,5.6 -3.1,10.32 -2.97,14.17 0.1,3.17 1.94,4.7 5.51,4.59 0.36,-0.01 0.68,0.24 0.75,0.59 l 0.01,0.04 c 0.08,0.38 -0.18,0.74 -0.56,0.79 -4.73,0.63 -8.1,-0.64 -10.09,-3.83 -3.03,-4.85 -0.26,-13.53 1.87,-19.1 2.91,-7.63 5.3,-13.74 7.15,-18.35 1.05,-2.6 1.62,-5.12 1.72,-7.56 0.05,-1.06 -0.92,-1.88 -1.96,-1.67 -3.09,0.62 -6.71,4.41 -8.81,6.95 -8.01,9.71 -13.99,18.57 -17.94,26.58 -0.45,0.91 -1.08,2.96 -1.87,6.14 -0.28,1.14 -1.57,1.71 -2.61,1.16 l -1.78,-0.95 c -1.45,-0.78 -2.14,-2.48 -1.64,-4.05 2.56,-7.94 9.73,-22.95 12.24,-35.02 0.47,-2.27 0.52,-4.35 0.13,-6.24 -0.22,-1.06 -1.23,-1.77 -2.3,-1.61 -3.6,0.52 -7.89,5.7 -10.34,9.12 -7.53,10.49 -13.86,22.17 -18.99,35.02 -0.99,2.49 -1.55,4.56 -1.66,6.2 -0.07,1.03 -1.11,1.7 -2.08,1.34 l -1.83,-0.68 c -1.27,-0.47 -2.09,-1.71 -2.04,-3.06 0.05,-1.54 0.34,-3.05 0.85,-4.54 3.17,-9.16 5.81,-17.69 7.92,-25.59 1.18,-4.39 4.84,-19.52 -2.02,-20.68 -2.57,-0.43 -5.21,0.08 -7.92,1.53 -8.43,4.53 -14.63,11.16 -18.62,19.89 -2.31,5.06 -2.56,12.2 5.04,12.33 0.75,0.01 1.78,0.05 3.09,0.12 0.78,0.04 0.92,1.13 0.18,1.36 -6.33,1.98 -14.7,-0.46 -15.02,-8.34 -0.51,-12.72 15.29,-25.62 25.81,-29.17 3.92,-1.32 9.43,-1.76 12.88,1.15 6.72,5.69 2.95,20.5 0.59,27.59 -0.04,0.14 0.03,0.29 0.16,0.34 l 0.24,0.09 c 0.02,0.01 0.03,0 0.04,-0.02 4.59,-9.41 9.82,-17.09 15.7,-23.02 6.63,-6.69 17.04,-6.66 16.13,5.58 -0.4,5.5 -3.16,12.49 -4.84,17.87 z"
       id="path19" />
    <path
       d="m 336.59,173.44 c -0.3,0.04 -0.52,-0.29 -0.36,-0.55 2.03,-3.33 2.74,-6.91 2.12,-10.75 -0.14,-0.88 0.72,-1.59 1.56,-1.28 l 2,0.75 c 0.83,0.31 1.42,1.05 1.52,1.93 0.34,3.06 -3.31,9.42 -6.84,9.9 z"
       id="path20" />
    <path
       d="m 267.09,181.6 c -0.09,0.24 0.23,0.43 0.4,0.23 2.9,-3.31 6.48,-7.25 10.48,-7.84 5.29,-0.79 7.13,3.54 5.43,7.85 -0.08,0.2 0,0.42 0.19,0.52 0.19,0.1 0.43,0.04 0.55,-0.13 2.52,-3.5 8.35,-9.72 13.11,-8.49 2.93,0.77 3.93,2.71 2.99,5.83 -0.12,0.39 -1.43,3.97 -3.92,10.72 -0.77,2.09 -0.54,3.56 0.67,4.41 1.56,1.09 3.43,0.04 5.34,-0.59 0.33,-0.11 0.57,-0.41 0.59,-0.76 0.2,-2.73 0.54,-4.61 1.01,-5.62 3.26,-6.97 14.42,-17.44 23.03,-13.53 0.36,0.17 0.79,0.08 1.06,-0.21 1.19,-1.29 2.58,-1.34 4.17,-0.15 0.47,0.35 0.61,0.98 0.34,1.5 -2.79,5.34 -5.27,10.76 -5.73,16.4 -0.11,1.35 -0.01,2.32 0.3,2.93 0.45,0.94 1.57,1.36 2.53,0.96 l 2.77,-1.15 c 0.35,-0.14 0.74,-0.02 0.94,0.3 0.2,0.32 0.14,0.73 -0.14,0.98 -5.04,4.48 -12.06,2.43 -11.36,-5.31 0.04,-0.5 -0.6,-0.75 -0.89,-0.34 -3.08,4.27 -12.29,12.19 -17.05,5.42 -0.21,-0.29 -0.61,-0.35 -0.89,-0.13 -2.36,1.92 -4.96,2.64 -7.8,2.15 -9.6,-1.64 -1.45,-14.79 -0.49,-19.02 0.12,-0.55 -0.32,-1.05 -0.88,-1.01 -1.11,0.09 -2.07,0.48 -2.9,1.18 -5.51,4.65 -9.76,10.05 -12.76,16.2 -0.46,0.94 -1.55,1.38 -2.53,1.02 l -0.76,-0.29 c -1.09,-0.4 -1.66,-1.6 -1.28,-2.7 1.02,-2.9 4.81,-9.65 5.12,-14.39 0.06,-0.91 -0.83,-1.57 -1.68,-1.26 -4.63,1.7 -8.74,7.08 -11.67,11.1 -1.83,2.52 -3.07,5.29 -3.71,8.32 -0.15,0.67 -0.86,1.06 -1.5,0.82 l -2.96,-1.1 c -0.27,-0.1 -0.57,-0.1 -0.84,-0.02 -6.56,1.95 -10.05,-0.49 -9.88,-7.23 0.01,-0.42 -0.53,-0.59 -0.76,-0.24 -2.3,3.52 -5.2,6.01 -8.71,7.48 -4.97,2.08 -10.19,-0.58 -9.2,-6.44 1.46,-8.63 11.29,-16.41 19.69,-17.69 0.63,-0.1 1.96,0.27 4,1.11 0.33,0.13 0.71,0.05 0.96,-0.21 1.23,-1.29 2.63,-1.36 4.18,-0.2 0.52,0.39 0.69,1.1 0.4,1.68 -2.51,5.1 -6.92,13.82 -5.15,19.36 0.14,0.44 0.53,0.75 0.99,0.79 1.43,0.13 2.68,-0.2 3.76,-0.99 0.18,-0.14 0.33,-0.32 0.41,-0.54 l 7.43,-20.04 c 0.38,-1.02 1.52,-1.54 2.54,-1.16 l 1.29,0.48 c 1.03,0.38 1.56,1.53 1.18,2.56 z m -17.7713,-6.7264 C 247.54,173.42 242.71,176.36 238.5254,181.4595 234.34,186.56 232.39,191.87 234.1613,193.3264 235.94,194.78 240.77,191.84 244.9546,186.7405 249.14,181.64 251.09,176.33 249.3187,174.8736 Z M 325.25,176.21 c -7.04,-2.69 -17.15,11.35 -16.29,17.23 0.15,1.04 1.15,1.73 2.18,1.51 1.08,-0.23 2.15,-0.76 3.21,-1.57 5.55,-4.29 9.33,-9.74 11.32,-16.33 0.1,-0.35 -0.08,-0.71 -0.42,-0.84 z"
       id="path21" />
    <path
       d="m 357.93,179.63 -2.14,0.81 c -0.56,0.22 -1.12,-0.33 -0.91,-0.9 l 0.81,-2.15 c 0.13,-0.37 0.1,-0.79 -0.1,-1.14 -1.83,-3.22 -8.72,-0.71 -9.44,2.59 -0.23,1.08 0.43,2.32 1.66,3.1 3.85,2.45 10.85,4.49 8.84,10.49 -0.38,1.13 -1.18,2.18 -2.41,3.13 -4.26,3.31 -8.93,4.25 -14.02,2.81 -1.93,-0.54 -4.45,-2.65 -4,-4.95 0.29,-1.48 1.46,-2.69 3.49,-3.62 0.61,-0.28 1.3,0.18 1.27,0.85 l -0.11,2.44 c -0.01,0.14 0.02,0.27 0.07,0.4 1.8,4.58 6.71,3.96 9.48,0.95 5.99,-6.51 -9.39,-7.33 -9.48,-13.3 -0.17,-11.17 22.48,-10.21 18.19,-2.55 -0.26,0.48 -0.69,0.85 -1.2,1.04 z"
       id="path22" />
  </g>
  <g
     fill="#98a986"
     id="g37"
     transform="translate(-137.45796,-92.195858)">
    <path
       d="m 433.49,183.83 c 0.34,4.53 1.75,8.4 4.24,11.61 -0.21,3.29 -0.59,5.75 -1.14,7.38 -3.28,9.65 -11.31,16.89 -19.16,22.61 -8.68,6.33 -16.67,12.51 -23.96,18.53 -4.52,3.73 -9.15,7.01 -13.89,9.84 -5.95,3.56 -15.79,5.25 -16.93,-4.52 -0.17,-1.48 0.17,-4.1 1.02,-7.86 1.2,-5.25 3.11,-10.62 5.73,-16.11 0.19,-0.38 -0.09,-0.83 -0.52,-0.83 h -7.49 c -0.62,0 -1.01,-0.67 -0.7,-1.21 l 0.23,-0.39 c 0.3,-0.53 0.86,-0.85 1.46,-0.85 h 7.54 c 0.5,0 0.95,-0.26 1.2,-0.69 l 4.9,-8.49 c 0.67,-1.16 1.92,-1.88 3.26,-1.88 h 0.9 c 1.27,0 2.06,1.37 1.42,2.47 -2.09,3.59 -3.47,6.11 -4.15,7.56 -0.15,0.31 -0.12,0.57 0.08,0.77 0.06,0.06 0.14,0.1 0.23,0.11 l 11.22,0.14 c 0.43,0.01 0.74,0.4 0.64,0.82 l -0.06,0.25 c -0.13,0.55 -0.62,0.94 -1.18,0.94 h -11.61 c -0.39,0 -0.74,0.22 -0.91,0.56 -3.25,6.33 -9.13,20.16 -6.95,26.5 0.45,1.29 1.6,2.17 2.89,2.21 4.61,0.16 10.43,-3.77 14.31,-6.7 5.45,-4.11 14.56,-11.16 27.34,-21.15 10.49,-8.19 21.43,-20 19.05,-34.79 -0.37,-2.31 -0.86,-4.53 -1.47,-6.64 -0.1,-0.35 0.3,-0.64 0.6,-0.43 1.2,0.83 1.82,0.91 1.86,0.24 z"
       id="path23" />
    <path
       d="m 282.42,255.8 c 0.26,0 0.48,0.19 0.51,0.44 0.03,0.26 -0.13,0.5 -0.38,0.56 -3.06,0.77 -5.8,0.46 -8.22,-0.92 -3.04,-1.72 -2.73,-5.68 -2.08,-8.89 0.81,-4.01 2.09,-8.26 3.83,-12.73 0.14,-0.36 0.04,-0.78 -0.26,-1.02 -4.73,-3.96 -10.18,-7.07 -16.34,-9.33 -0.42,-0.15 -0.88,0.08 -1.01,0.5 -5.57,17.93 -16.81,34.71 -38.15,32.79 -9.99,-0.89 -18.82,-7.72 -16.59,-18.72 2.47,-12.14 15.87,-18.29 27.23,-20.08 7.44,-1.17 14.85,-0.99 22.22,0.54 0.49,0.1 0.98,-0.19 1.13,-0.68 1.22,-4.11 5.04,-17.66 11.38,-14.18 0.33,0.18 0.44,0.61 0.24,0.93 -2.77,4.49 -4.81,9.55 -6.12,15.19 -0.07,0.31 0.1,0.64 0.4,0.75 6.01,2.28 11.52,5.45 16.51,9.5 0.25,0.2 0.62,0.12 0.76,-0.17 l 10.78,-22.7 c 0.67,-1.42 2.36,-2.02 3.78,-1.35 l 1.28,0.61 c 1.02,0.48 1.41,1.74 0.84,2.71 -5.99,10.35 -10.82,21.31 -14.49,32.88 -0.78,2.47 -1.35,5.36 -1.72,8.67 -0.34,3.15 1.15,4.71 4.47,4.7 z m -30.06,-33.57 c -13.06,-2.79 -32.32,0.15 -39.98,12.62 -3.77,6.13 -3.33,14.85 4.24,17.59 11.28,4.1 22.21,-4.03 28.16,-13.45 3.15,-5 5.75,-10.46 7.8,-16.37 0.06,-0.17 -0.04,-0.35 -0.22,-0.39 z"
       id="path24" />
    <path
       d="m 348.41,237.06 c -0.04,0.11 0,0.23 0.1,0.28 0.1,0.06 0.23,0.04 0.3,-0.05 2.26,-2.67 5,-4.93 8.21,-6.8 3.15,-1.84 8.09,-0.95 6.77,3.77 -0.4,1.43 -2.09,2.04 -3.3,1.19 l -1.79,-1.25 c -0.07,-0.05 -0.15,-0.08 -0.23,-0.1 -4.01,-0.99 -10.28,7.15 -12.68,10.7 -1.32,1.97 -2.29,4.24 -2.92,6.83 -0.17,0.7 -0.91,1.1 -1.59,0.85 l -4,-1.49 c -0.31,-0.11 -0.65,-0.1 -0.95,0.02 -5.61,2.3 -10.49,0.01 -9.67,-6.8 0.06,-0.49 -0.57,-0.75 -0.87,-0.36 -1.89,2.43 -3.98,4.44 -6.28,6.03 -3.63,2.52 -10.5,3.25 -11.66,-2.53 -0.1,-0.51 -0.7,-0.76 -1.13,-0.46 -3.55,2.46 -7.18,3.83 -10.9,4.12 -10.24,0.79 -14.43,-6.85 -8.97,-15.23 3.28,-5.04 7.41,-8.03 12.38,-8.96 7.45,-1.41 11.25,6.33 4.51,10.73 -3.47,2.27 -7.57,3.62 -12.3,4.07 -0.73,0.07 -1.28,0.69 -1.25,1.42 0.11,2.56 1.11,4.25 3.02,5.08 4.52,1.94 10.51,-1.34 14.21,-4.35 0.49,-0.39 0.86,-0.89 1.1,-1.47 2.37,-5.68 6.85,-10.12 13.44,-13.33 3.73,-1.81 6.97,-2.08 9.74,-0.8 0.34,0.15 0.73,0.09 1.01,-0.15 1.09,-0.97 2.33,-1.13 3.74,-0.48 0.81,0.37 1.13,1.35 0.7,2.14 -2.64,4.85 -6.71,13.34 -5.66,18.46 0.23,1.13 1.34,1.85 2.47,1.6 1.73,-0.39 3.03,-0.86 3.89,-1.42 0.27,-0.18 0.49,-0.44 0.61,-0.74 l 6.93,-17.34 c 0.47,-1.18 1.8,-1.77 2.99,-1.33 l 0.78,0.29 c 1.05,0.39 1.59,1.55 1.2,2.6 z m -57.07,1.78 c -0.14,0.35 0.14,0.73 0.52,0.69 3.88,-0.44 11.8,-3.85 11.45,-8.77 -0.07,-0.92 -0.79,-1.63 -1.66,-1.62 -4.42,0 -8.86,6.13 -10.31,9.7 z m 38.88,-8.63 c -7.03,-2.79 -17.36,11.16 -16.57,17.07 0.14,1.04 1.13,1.76 2.17,1.55 1.09,-0.22 2.17,-0.73 3.24,-1.54 5.63,-4.23 9.48,-9.64 11.57,-16.23 0.11,-0.35 -0.07,-0.72 -0.41,-0.85 z"
       id="path25" />
    <path
       d="m 259.79,282.82 c -2.65,-0.14 -7.53,1.37 -7.76,-3.17 -0.2,-4.1 2.38,-5.84 6.24,-4.31 0.34,0.13 0.72,-0.11 0.73,-0.48 0.05,-1.65 0.2,-2.83 0.45,-3.52 0.07,-0.21 0.29,-0.34 0.51,-0.3 0.22,0.04 0.38,0.24 0.38,0.46 v 10.8 c 0,0.3 -0.25,0.54 -0.55,0.52 z m -0.7872,-4.8992 C 258.98,276.65 257.93,275.64 256.663,275.6612 l -1.0598,0.0185 c -1.2732,0.0203 -2.2832,1.0703 -2.2595,2.3398 l 0.0335,1.9197 c 0.0228,1.2708 1.0728,2.2808 2.3398,2.2596 l 1.0598,-0.0185 c 1.2732,-0.0203 2.2832,-1.0703 2.2595,-2.3398 z"
       id="path26" />
    <path
       d="m 318.83,275.41 c 1.04,-0.63 2.44,-0.73 4.19,-0.3 0.8,0.19 1.36,0.91 1.36,1.74 v 5.53 c 0,0.3 -0.24,0.54 -0.53,0.54 h -0.32 c -0.25,0 -0.45,-0.21 -0.45,-0.46 v -5.17 c 0,-0.88 -0.72,-1.6 -1.61,-1.6 h -2.2 c -0.72,0 -1.31,0.59 -1.31,1.31 v 5.57 c 0,0.25 -0.21,0.46 -0.47,0.46 h -0.37 c -0.29,0 -0.53,-0.24 -0.53,-0.53 v -10.74 c 0,-0.25 0.2,-0.46 0.45,-0.46 h 0.3 c 0.27,0 0.48,0.21 0.48,0.48 v 3.06 c 0,0.52 0.57,0.84 1.01,0.57 z"
       id="path27" />
    <path
       d="m 229.46,279.15 c 0.25,0 0.52,-0.29 0.82,-0.86 1.39,-2.68 2.52,-4.77 3.39,-6.28 0.39,-0.67 1.42,-0.4 1.42,0.38 v 9.98 c 0,0.28 -0.22,0.5 -0.5,0.5 h -0.34 c -0.22,0 -0.41,-0.17 -0.42,-0.39 -0.1,-1.69 -0.09,-3.78 0.03,-6.25 0.02,-0.34 -0.28,-0.62 -0.62,-0.56 -0.23,0.04 -0.38,0.14 -0.45,0.3 -0.81,1.69 -1.65,3.3 -2.54,4.82 -0.19,0.32 -0.45,0.49 -0.79,0.49 -0.33,0 -0.59,-0.17 -0.78,-0.49 -0.89,-1.52 -1.74,-3.12 -2.54,-4.82 -0.08,-0.16 -0.23,-0.26 -0.46,-0.3 -0.33,-0.05 -0.64,0.22 -0.61,0.56 0.12,2.48 0.13,4.56 0.03,6.25 -0.01,0.22 -0.2,0.39 -0.42,0.39 h -0.34 c -0.28,0 -0.5,-0.22 -0.5,-0.5 l -0.01,-9.98 c 0,-0.77 1.03,-1.05 1.42,-0.38 0.87,1.51 2,3.6 3.39,6.28 0.3,0.57 0.58,0.86 0.82,0.86 z"
       id="path28" />
    <circle
       cx="301.64999"
       cy="272.39001"
       r="0.69999999"
       id="circle28" />
    <path
       d="m 336.75,282.72 v -10.69 c 0,-0.14 0.11,-0.25 0.25,-0.25 h 0.77 c 0.14,0 0.25,0.11 0.25,0.25 v 9.78 c 0,0.14 0.11,0.25 0.25,0.25 h 5.34 c 0.14,0 0.25,0.11 0.25,0.25 v 0.41 c 0,0.14 -0.11,0.25 -0.25,0.25 H 337 c -0.14,0 -0.25,-0.11 -0.25,-0.25 z"
       id="path29" />
    <path
       d="m 311.71,275.72 c -0.32,0.07 -0.84,0.04 -1.57,-0.09 -0.48,-0.09 -0.92,0.28 -0.9,0.77 l 0.15,4.37 c 0,0.05 0,0.09 0.01,0.14 0.19,0.85 0.94,1.34 2.24,1.47 0.14,0.01 0.25,0.13 0.26,0.27 0.01,0.14 -0.09,0.26 -0.23,0.29 -1.17,0.22 -2.15,0.05 -2.92,-0.5 -0.28,-0.2 -0.46,-0.5 -0.5,-0.84 -0.18,-1.61 0.23,-4.68 -0.76,-5.81 -0.21,-0.24 -0.25,-0.59 -0.11,-0.87 0.45,-0.87 0.88,-1.45 1.29,-1.73 0.27,-0.18 0.63,0.02 0.62,0.34 -0.03,0.85 0.77,1.4 2.4,1.67 0.28,0.05 0.3,0.45 0.02,0.52 z"
       id="path30" />
    <rect
       x="300.98001"
       y="274.72"
       width="1.36"
       height="8.2200003"
       rx="0.64999998"
       id="rect30" />
    <path
       d="m 290.16,274.94 c 0.41,0 0.68,0.19 0.81,0.57 0.25,0.72 0.9,2.32 1.96,4.79 0.13,0.29 0.55,0.29 0.66,-0.01 l 1.87,-5.05 c 0.1,-0.29 0.42,-0.43 0.71,-0.33 l 0.26,0.1 c 0.19,0.07 0.28,0.27 0.21,0.46 l -2.55,6.88 c -0.3,0.81 -1.45,0.82 -1.76,0.01 l -2,-5.25 c -0.01,-0.04 -0.05,-0.07 -0.1,-0.08 -0.02,0 -0.04,-0.01 -0.07,-0.01 -0.02,0 -0.04,0.01 -0.07,0.01 -0.04,0.01 -0.08,0.04 -0.09,0.08 l -1.99,5.25 c -0.31,0.82 -1.46,0.81 -1.76,0 l -2.57,-6.88 c -0.07,-0.18 0.03,-0.39 0.21,-0.46 l 0.26,-0.1 c 0.29,-0.1 0.61,0.04 0.71,0.33 l 1.88,5.05 c 0.12,0.29 0.53,0.3 0.66,0.01 1.06,-2.48 1.71,-4.08 1.95,-4.8 0.13,-0.38 0.4,-0.57 0.81,-0.57 z"
       id="path31" />
    <path
       d="m 363.88,281.11 c 0.31,0 0.53,-0.21 0.65,-0.62 0.55,-1.75 1.27,-3.51 2.18,-5.27 0.14,-0.26 0.43,-0.41 0.73,-0.36 h 0.02 c 0.31,0.05 0.49,0.37 0.38,0.66 -0.92,2.36 -1.97,4.66 -3.15,6.9 -0.21,0.41 -0.48,0.61 -0.81,0.61 -0.33,0 -0.6,-0.2 -0.82,-0.61 -1.18,-2.24 -2.23,-4.54 -3.15,-6.9 -0.11,-0.29 0.07,-0.61 0.38,-0.66 h 0.02 c 0.3,-0.04 0.59,0.1 0.73,0.36 0.91,1.76 1.64,3.52 2.18,5.28 0.13,0.41 0.35,0.61 0.66,0.61 z"
       id="path32" />
    <path
       d="m 373.77,279.12 c -0.66,0 -1.11,0.67 -0.86,1.28 1.1,2.64 3.54,1.59 5.51,1.34 0.19,-0.02 0.36,0.09 0.41,0.27 0.05,0.18 -0.04,0.37 -0.21,0.45 -2.06,0.93 -6.09,1.04 -6.99,-1.75 -2.2,-6.82 7.81,-8.05 7.75,-2.16 -0.01,0.32 -0.26,0.57 -0.57,0.57 z m -0.43,-0.71 4.24,-0.08 c 0.25,-0.01 0.45,-0.22 0.45,-0.47 v -0.15 c -0.03,-1.18 -1.1,-2.11 -2.39,-2.08 l -0.48,0.01 c -1.29,0.02 -2.32,1 -2.29,2.17 v 0.15 c 0,0.26 0.22,0.46 0.47,0.45 z"
       id="path33" />
    <path
       d="m 241.16,276.2 c -0.18,0.04 -0.35,-0.1 -0.35,-0.28 v -0.37 c 0,-0.04 0.02,-0.08 0.05,-0.1 0.65,-0.44 2.28,-0.58 4.87,-0.41 0.97,0.06 1.73,0.86 1.73,1.83 v 5.37 c 0,0.32 -0.25,0.58 -0.57,0.59 l -4.8,0.14 c -1.28,0.04 -2.26,-1.12 -2.01,-2.38 l 0.02,-0.11 c 0.21,-1.37 1.4,-2.37 2.78,-2.35 l 2.35,0.04 c 0.84,0.01 1.3,-0.98 0.75,-1.62 -1.22,-1.44 -2.63,-0.77 -4.82,-0.35 z m 5.15,3.9452 c -0.14,-0.8852 -1.4,-1.4252 -2.825,-1.2066 -1.425,0.2214 -2.475,1.1114 -2.335,1.9962 0.14,0.8852 1.4,1.4252 2.825,1.2066 1.425,-0.2214 2.475,-1.1114 2.335,-1.9962 z"
       id="path34" />
    <path
       d="m 267.47,279.1 c -0.67,-0.01 -1.13,0.65 -0.89,1.27 1.06,2.67 3.53,1.66 5.51,1.44 0.19,-0.02 0.36,0.1 0.41,0.28 0.05,0.18 -0.04,0.37 -0.22,0.45 -2.08,0.9 -6.13,0.94 -6.99,-1.88 -2.09,-6.89 7.98,-7.95 7.82,-2.04 -0.01,0.32 -0.27,0.57 -0.58,0.57 z m -0.4,-0.74 4.3,-0.06 c 0.26,0 0.46,-0.21 0.46,-0.47 v -0.15 c -0.02,-1.11 -1.03,-1.99 -2.27,-1.97 h -0.76 c -1.23,0.02 -2.22,0.93 -2.21,2.03 v 0.15 c 0,0.26 0.22,0.47 0.48,0.47 z"
       id="path35" />
    <path
       d="m 356.2391,279.4776 c 9e-4,1.9624 -1.5991,3.5524 -3.5662,3.5537 l -1.54,-0.003 c -1.9629,10e-4 -3.5529,-1.5986 -3.5538,-3.5662 l 0.002,-1.02 c -9e-4,-1.9624 1.5991,-3.5524 3.5662,-3.5537 l 1.54,0.003 c 1.9629,-10e-4 3.5529,1.5986 3.5538,3.5662 z m -1.2982,-1.0523 C 354.94,276.9 353.71,275.65 352.1757,275.6505 l -0.54,-0.001 c -1.5257,5e-4 -2.7757,1.2305 -2.7748,2.7652 l -0.002,1.02 c 9e-4,1.5253 1.2309,2.7753 2.7652,2.7748 l 0.54,0.001 c 1.5257,-5e-4 2.7757,-1.2305 2.7748,-2.7652 z"
       id="path36" />
    <circle
       cx="391.04001"
       cy="278.26001"
       r="3.4100001"
       id="circle36" />
    <rect
       x="-4.8499999"
       y="-0.38"
       transform="rotate(0.1,-159463.93,113636.43)"
       width="9.6999998"
       height="0.75999999"
       rx="0.37"
       id="rect36" />
    <rect
       x="-4.5900002"
       y="-0.38999999"
       transform="rotate(-0.3,53387.931,-77129.672)"
       width="9.1800003"
       height="0.77999997"
       rx="0.37"
       id="rect37" />
  </g>
</svg>
